                <svg
                    id="reload-page-btn"
                    xmlns="http://www.w3.org/2000/svg"
                    viewBox="0 0 512 512"
                >
                    <g
                        transform="translate(0.000000,512.000000) scale(0.100000,-0.100000)"
                        fill="#171717"
                        stroke="none"
                    >
                        <path
                            d="M2380 4914 c-449 -43 -844 -185 -1182 -427 -310 -222 -580 -533 -743
-856 -454 -903 -291 -1986 408 -2708 228 -235 472 -405 760 -529 789 -338
1671 -230 2367 288 115 86 353 322 437 433 423 561 580 1231 447 1905 -70 357
-216 679 -447 985 -86 114 -324 349 -444 438 -430 318 -926 482 -1443 475 -69
0 -141 -3 -160 -4z m470 -230 c854 -112 1570 -749 1785 -1588 48 -188 66 -331
66 -536 0 -205 -18 -348 -66 -536 -193 -752 -786 -1346 -1538 -1539 -190 -48
-332 -66 -537 -66 -198 0 -330 16 -520 62 -756 186 -1361 785 -1555 1543 -48
189 -66 332 -66 536 0 205 18 347 66 537 153 595 558 1097 1110 1376 390 197
814 268 1255 211z"
                        />
                        <path
                            d="M2391 3990 c-106 -14 -264 -54 -357 -90 -188 -75 -344 -178 -494
-329 -248 -249 -389 -561 -416 -918 l-7 -93 112 0 111 0 0 59 c0 32 7 97 15
144 89 513 489 913 1002 1002 110 19 296 19 406 0 243 -42 463 -154 640 -324
l68 -65 -153 -153 -153 -153 368 0 367 0 0 360 c0 198 -3 360 -8 360 -4 0 -65
-58 -136 -129 l-129 -130 -72 71 c-188 183 -443 315 -714 369 -113 22 -344 32
-450 19z"
                        />
                        <path
                            d="M3780 2501 c0 -32 -7 -97 -15 -144 -89 -513 -489 -913 -1002 -1002
-110 -19 -296 -19 -406 0 -239 42 -460 151 -630 314 l-78 75 153 153 153 153
-368 0 -367 0 0 -360 c0 -198 3 -360 8 -360 4 0 65 58 136 129 l130 130 65
-62 c399 -376 949 -501 1461 -331 185 62 402 195 548 337 145 141 294 379 356
567 33 101 63 255 72 368 l7 92 -112 0 -111 0 0 -59z"
                        />
                    </g>
                </svg>